HIERARCHY
ROOT Hips
{
	OFFSET 0.000000 0.000000 0.000000
	CHANNELS 6 Xposition Yposition Zposition Zrotation Yrotation Xrotation 
	JOINT LHipJoint
	{
		OFFSET 0.000000 0.000000 0.000000
		CHANNELS 3 Zrotation Yrotation Xrotation
		JOINT LeftUpLeg
		{
			OFFSET 1.363060 -1.794630 0.839290
			CHANNELS 3 Zrotation Yrotation Xrotation
			JOINT LeftLeg
			{
				OFFSET 2.448110 -6.726130 0.000000
				CHANNELS 3 Zrotation Yrotation Xrotation
				JOINT LeftFoot
				{
					OFFSET 2.562200 -7.039590 0.000000
					CHANNELS 3 Zrotation Yrotation Xrotation
					JOINT LeftToeBase
					{
						OFFSET 0.157640 -0.433110 2.322550
						CHANNELS 3 Zrotation Yrotation Xrotation
						End Site
						{
							OFFSET 0.000000 0.000000 0.000000
						}
					}
				}
			}
		}
	}
	JOINT RHipJoint
	{
		OFFSET 0.000000 0.000000 0.000000
		CHANNELS 3 Zrotation Yrotation Xrotation
		JOINT RightUpLeg
		{
			OFFSET -1.305520 -1.794630 0.839290
			CHANNELS 3 Zrotation Yrotation Xrotation
			JOINT RightLeg
			{
				OFFSET -2.542530 -6.985550 0.000000
				CHANNELS 3 Zrotation Yrotation Xrotation
				JOINT RightFoot
				{
					OFFSET -2.568260 -7.056230 0.000000
					CHANNELS 3 Zrotation Yrotation Xrotation
					JOINT RightToeBase
					{
						OFFSET -0.164730 -0.452590 2.363150
						CHANNELS 3 Zrotation Yrotation Xrotation
						End Site
						{
							OFFSET 0.000000 0.000000 0.000000
						}
					}
				}
			}
		}
	}
	JOINT LowerBack
	{
		OFFSET 0.000000 0.000000 0.000000
		CHANNELS 3 Zrotation Yrotation Xrotation
		JOINT Spine
		{
			OFFSET 0.028270 2.035590 -0.193380
			CHANNELS 3 Zrotation Yrotation Xrotation
			JOINT Spine1
			{
				OFFSET 0.056720 2.048850 -0.042750
				CHANNELS 3 Zrotation Yrotation Xrotation
				JOINT Neck
				{
					OFFSET 0.000000 0.000000 0.000000
					CHANNELS 3 Zrotation Yrotation Xrotation
					JOINT Neck1
					{
						OFFSET -0.054170 1.746240 0.172020
						CHANNELS 3 Zrotation Yrotation Xrotation
						JOINT Head
						{
							OFFSET 0.104070 1.761360 -0.123970
							CHANNELS 3 Zrotation Yrotation Xrotation
							End Site
							{
								OFFSET 0.000000 0.000000 0.000000
							}
						}
					}
				}
				JOINT LeftShoulder
				{
					OFFSET 0.000000 0.000000 0.000000
					CHANNELS 3 Zrotation Yrotation Xrotation
					JOINT LeftArm
					{
						OFFSET 3.362410 1.200890 -0.311210
						CHANNELS 3 Zrotation Yrotation Xrotation
						JOINT LeftForeArm
						{
							OFFSET 4.983000 -0.000000 -0.000000
							CHANNELS 3 Zrotation Yrotation Xrotation
							JOINT LeftHand
							{
								OFFSET 3.483560 -0.000000 -0.000000
								CHANNELS 3 Zrotation Yrotation Xrotation
								JOINT LeftFingerBase
								{
									OFFSET 0.000000 0.000000 0.000000
									CHANNELS 3 Zrotation Yrotation Xrotation
									JOINT LeftHandIndex1
									{
										OFFSET 0.715260 -0.000000 -0.000000
										CHANNELS 3 Zrotation Yrotation Xrotation
										End Site
										{
											OFFSET 0.000000 0.000000 0.000000
										}
									}
								}
								JOINT LThumb
								{
									OFFSET 0.000000 0.000000 0.000000
									CHANNELS 3 Zrotation Yrotation Xrotation
									End Site
									{
										OFFSET 0.000000 0.000000 0.000000
									}
								}
							}
						}
					}
				}
				JOINT RightShoulder
				{
					OFFSET 0.000000 0.000000 0.000000
					CHANNELS 3 Zrotation Yrotation Xrotation
					JOINT RightArm
					{
						OFFSET -3.136600 1.374050 -0.404650
						CHANNELS 3 Zrotation Yrotation Xrotation
						JOINT RightForeArm
						{
							OFFSET -5.241900 -0.000000 -0.000000
							CHANNELS 3 Zrotation Yrotation Xrotation
							JOINT RightHand
							{
								OFFSET -3.444170 -0.000000 -0.000000
								CHANNELS 3 Zrotation Yrotation Xrotation
								JOINT RightFingerBase
								{
									OFFSET 0.000000 0.000000 0.000000
									CHANNELS 3 Zrotation Yrotation Xrotation
									JOINT RightHandIndex1
									{
										OFFSET -0.622530 -0.000000 -0.000000
										CHANNELS 3 Zrotation Yrotation Xrotation
										End Site
										{
											OFFSET 0.000000 0.000000 0.000000
										}
									}
								}
								JOINT RThumb
								{
									OFFSET 0.000000 0.000000 0.000000
									CHANNELS 3 Zrotation Yrotation Xrotation
									End Site
									{
										OFFSET 0.000000 0.000000 0.000000
									}
								}
							}
						}
					}
				}
			}
		}
	}
}
MOTION
Frames: 11
Frame Time: 0.008333
-19.766085 17.509404 1.732744 -1.036418 43.063789 4.491272 -2.896721 -0.832834 0.156195 -6.045945 -5.083253 -21.566764 1.204720 12.123296 34.663129 8.359769 -16.858115 3.948159 0.001100 -0.217100 -0.596600 1.734605 0.076762 -0.328815 12.835770 16.493209 -19.056240 -7.311026 -17.466690 57.623009 -3.621703 23.269496 12.843657 -0.180300 2.735100 -7.542100 -8.264221 -0.756900 22.741097 -1.799147 -3.043558 4.241754 0.032225 -0.747090 -5.061316 -1.288493 2.898646 -1.316625 9.297940 3.527770 -19.078193 1.263000 0.468000 -6.071900 -1.739523 -7.318190 1.387157 -60.701853 -2.010424 32.974792 27.903365 -37.009283 -12.251097 0.463465 -1.772205 1.973526 5.388569 7.593653 0.794500 -7.125000 0.000000 0.000000 -18.923700 38.683400 3.075500 1.817103 6.082889 1.880989 78.090701 -19.382400 41.817420 -29.074952 36.678376 -9.908212 0.724835 0.243141 -5.632677 -7.794459 -14.463732 2.168900 7.125000 0.000000 0.000000 17.357100 -44.031500 0.428400 
-19.692887 17.527859 1.806149 -1.156035 43.195019 4.425976 -2.938522 -0.787755 0.256105 -5.982018 -5.114718 -21.187630 1.169273 12.028725 34.454185 8.397105 -16.865561 3.793767 0.000800 -0.178400 -0.490100 1.715592 0.156408 -0.447741 12.843307 16.281240 -19.770524 -7.182421 -17.446321 57.000718 -3.750050 22.473221 11.473534 -0.242500 3.169300 -8.750400 -8.288492 -0.884217 22.826203 -1.753622 -3.203155 4.220258 0.164958 -0.840176 -5.093791 -1.246801 3.042403 -1.229487 9.199068 3.716092 -19.209405 1.218100 0.554900 -6.137200 -1.721192 -7.378235 1.418919 -60.530173 -2.874148 32.660691 28.472510 -37.359856 -12.602030 0.439811 -1.757774 1.402096 6.197040 7.778749 0.951800 -7.125000 0.000000 0.000000 -18.267300 38.919300 2.849100 1.808102 6.099360 1.878006 78.107021 -19.449259 41.572826 -28.994662 36.617961 -9.878367 0.740814 0.227150 -5.512670 -8.164008 -14.614832 2.288000 7.125000 0.000000 0.000000 17.062400 -44.202100 0.346600 
-19.619997 17.549509 1.881409 -1.260084 43.321370 4.376593 -2.986291 -0.738215 0.363451 -5.917761 -5.149816 -20.777933 1.110814 11.910715 34.175044 8.424265 -16.840063 3.696709 0.000600 -0.154500 -0.424400 1.708063 0.229115 -0.560390 12.819413 16.134534 -20.404301 -6.978787 -17.382011 56.175935 -3.867852 21.584300 10.224188 -0.299200 3.517300 -9.722600 -8.299605 -1.013571 22.902441 -1.713005 -3.363329 4.194661 0.285438 -0.932813 -5.130363 -1.184331 3.192602 -1.132386 9.083296 3.912148 -19.334973 1.164200 0.645700 -6.202800 -1.702660 -7.434723 1.451387 -60.323687 -3.693356 32.415096 29.078048 -37.736294 -12.985286 0.417706 -1.745992 0.765249 6.980157 7.983001 1.112900 -7.125000 0.000000 0.000000 -17.633400 39.175500 2.626700 1.797767 6.114839 1.875201 78.136931 -19.524182 41.338827 -28.918046 36.560763 -9.850014 0.757104 0.207923 -5.400451 -8.587648 -14.749221 2.420000 7.125000 0.000000 0.000000 16.711900 -44.359900 0.271900 
-19.548448 17.558581 1.956979 -1.333138 43.445135 4.353742 -3.037176 -0.691018 0.470898 -5.860677 -5.195148 -20.370485 1.038908 11.781146 33.861470 8.440178 -16.789586 3.653173 0.000500 -0.148400 -0.407700 1.705862 0.301617 -0.672310 12.744200 16.058252 -21.002791 -6.718786 -17.284551 55.205886 -3.969099 20.692065 9.124236 -0.349800 3.800100 -10.515100 -8.299687 -1.144002 22.963165 -1.683221 -3.522656 4.167637 0.385475 -1.024627 -5.162021 -1.101639 3.347434 -1.038111 8.951375 4.114079 -19.449868 1.101600 0.740000 -6.264700 -1.684320 -7.487437 1.485056 -60.068113 -4.473431 32.241908 29.720679 -38.137680 -13.403064 0.398927 -1.738407 0.102480 7.692358 8.199016 1.269200 -7.125000 0.000000 0.000000 -17.061300 39.442700 2.418900 1.786313 6.129975 1.872362 78.185427 -19.603739 41.116265 -28.844311 36.506473 -9.822652 0.773254 0.187090 -5.298922 -9.034566 -14.871686 2.557900 7.125000 0.000000 0.000000 16.335100 -44.507900 0.204000 
-19.476384 17.585799 2.036363 -1.378465 43.560805 4.369357 -3.097618 -0.636688 0.589396 -5.812151 -5.243190 -19.915115 0.938139 11.620539 33.454888 8.445108 -16.700933 3.661637 0.000600 -0.160700 -0.441500 1.721183 0.364525 -0.773730 12.616337 16.041686 -21.489046 -6.365285 -17.125134 53.986737 -4.059667 19.845283 8.215714 -0.392900 4.025000 -11.147100 -8.293344 -1.272352 23.000062 -1.659828 -3.677823 4.134835 0.473600 -1.114091 -5.195359 -0.998181 3.505083 -0.946407 8.801907 4.318870 -19.552717 1.029700 0.836500 -6.322200 -1.665964 -7.535990 1.519385 -59.773902 -5.204758 32.133777 30.405983 -38.567659 -13.861273 0.384935 -1.735566 -0.563326 8.306371 8.413452 1.413400 -7.125000 0.000000 0.000000 -16.572800 39.705700 2.233900 1.774130 6.144114 1.869613 78.243113 -19.691136 40.912824 -28.770475 36.452210 -9.794176 0.788480 0.166292 -5.203783 -9.473509 -14.980816 2.692900 7.125000 0.000000 0.000000 15.960700 -44.642500 0.144600 
-19.404422 17.614872 2.117913 -1.399721 43.664441 4.415311 -3.163074 -0.580080 0.712967 -5.768091 -5.295059 -19.441323 0.820734 11.441296 32.992803 8.438992 -16.577441 3.707319 0.000900 -0.192400 -0.528700 1.748745 0.423540 -0.869817 12.433554 16.094552 -21.903066 -5.941897 -16.914783 52.585716 -4.140785 19.104058 7.510250 -0.431500 4.215600 -11.683900 -8.282379 -1.395997 23.017559 -1.640020 -3.825923 4.095887 0.553118 -1.199667 -5.230124 -0.874300 3.661322 -0.851582 8.628466 4.520213 -19.650802 0.947400 0.932100 -6.378400 -1.647492 -7.579351 1.553726 -59.451963 -5.870495 32.078314 31.145959 -39.034727 -14.371321 0.377823 -1.737939 -1.207582 8.791880 8.603922 1.535000 -7.125000 0.000000 0.000000 -16.191400 39.940000 2.082600 1.761417 6.156139 1.867203 78.299163 -19.789250 40.739509 -28.701935 36.402858 -9.767754 0.802699 0.147765 -5.114004 -9.872279 -15.092256 2.819500 7.125000 0.000000 0.000000 15.622800 -44.777900 0.087900 
-19.332873 17.645801 2.201627 -1.401210 43.762723 4.496380 -3.236591 -0.521031 0.845311 -5.720031 -5.353556 -18.938450 0.670681 11.224814 32.422543 8.418074 -16.408897 3.839730 0.001400 -0.243300 -0.668400 1.791137 0.480113 -0.961007 12.192284 16.203298 -22.247217 -5.441034 -16.643692 50.977684 -4.218999 18.494249 7.035618 -0.468100 4.388400 -12.171900 -8.262166 -1.517668 23.010756 -1.622228 -3.968917 4.050000 0.623875 -1.282764 -5.265863 -0.740101 3.819470 -0.759632 8.440910 4.723916 -19.744995 0.858800 1.029600 -6.432400 -1.628908 -7.618226 1.588104 -59.104251 -6.477603 32.063051 31.939088 -39.533841 -14.932363 0.377191 -1.743743 -1.822544 9.177201 8.749116 1.633600 -7.125000 0.000000 0.000000 -15.888500 40.125600 1.966400 1.748645 6.165808 1.864977 78.349545 -19.899339 40.599032 -28.640887 36.359837 -9.743953 0.814653 0.132258 -5.030456 -10.206582 -15.189431 2.927500 7.125000 0.000000 0.000000 15.339900 -44.895500 0.040600 
-19.261737 17.678277 2.287610 -1.385361 43.854191 4.610350 -3.313952 -0.461336 0.981481 -5.670075 -5.419970 -18.425404 0.506088 10.989478 31.798557 8.387956 -16.216015 4.015531 0.002200 -0.301800 -0.829200 1.845095 0.535961 -1.048299 11.896697 16.365336 -22.537713 -4.885613 -16.318855 49.216281 -4.301395 18.032040 6.743242 -0.504300 4.552200 -12.635700 -8.240124 -1.635935 22.984326 -1.602880 -4.106901 3.996237 0.693986 -1.363422 -5.305163 -0.607968 3.993750 -0.701417 8.251968 4.948972 -19.811166 0.767600 1.139700 -6.471300 -1.609090 -7.651914 1.621960 -58.744097 -7.019627 32.069996 32.788317 -40.065280 -15.549819 0.384583 -1.754591 -2.401938 9.414922 8.851079 1.698700 -7.125000 0.000000 0.000000 -15.707400 40.260700 1.888700 1.736846 6.173123 1.862787 78.392005 -20.017417 40.486065 -28.584564 36.320490 -9.720752 0.823783 0.120565 -4.945620 -10.454437 -15.268217 3.009700 7.125000 0.000000 0.000000 15.131600 -44.989800 0.003900 
-19.189878 17.712814 2.378128 -1.374808 43.868461 4.688086 -3.387896 -0.385053 1.138808 -5.611420 -5.394336 -17.869787 0.336345 10.737438 31.133845 8.367876 -16.044530 4.200855 0.003100 -0.357900 -0.983400 1.919904 0.579632 -1.128002 11.591834 16.634086 -22.700231 -4.288412 -15.937496 47.329378 -4.388806 17.697649 6.587522 -0.540800 4.711500 -13.087500 -8.243816 -1.714617 22.970027 -1.577159 -4.200581 3.947429 0.776613 -1.422689 -5.351354 -0.476753 4.177616 -0.653743 8.056713 5.186984 -19.869605 0.673500 1.257200 -6.504900 -1.588549 -7.681658 1.655333 -58.383406 -7.494031 32.091800 33.695278 -40.627109 -16.226020 0.399624 -1.769258 -2.950393 9.523148 8.896937 1.730200 -7.125000 0.000000 0.000000 -15.629500 40.333400 1.850000 1.726290 6.176843 1.860629 78.424283 -20.147499 40.396875 -28.535478 36.286208 -9.699006 0.829421 0.113187 -4.867250 -10.602883 -15.319112 3.060000 7.125000 0.000000 0.000000 15.007600 -45.049900 -0.018900 
-19.118948 17.748382 2.469575 -1.346798 43.915422 4.821509 -3.466825 -0.315535 1.291658 -5.548349 -5.424060 -17.322612 0.152801 10.467558 30.418159 8.334203 -15.842081 4.436227 0.004100 -0.412900 -1.134600 1.999641 0.630074 -1.206981 11.226370 16.899834 -22.867839 -3.661772 -15.508722 45.338323 -4.484854 17.463952 6.569637 -0.572200 4.844100 -13.464500 -8.224103 -1.806607 22.931221 -1.547852 -4.305581 3.884484 0.852782 -1.487273 -5.404380 -0.346164 4.373976 -0.631424 7.857412 5.442074 -19.917260 0.576900 1.384300 -6.530000 -1.567147 -7.706627 1.687975 -58.021909 -7.906983 32.128454 34.659355 -41.214865 -16.961802 0.421558 -1.787374 -3.475648 9.511811 8.889744 1.729600 -7.125000 0.000000 0.000000 -15.646700 40.347000 1.846700 1.716339 6.178246 1.858539 78.447221 -20.288420 40.327048 -28.498258 36.261411 -9.681672 0.831639 0.109879 -4.802104 -10.656885 -15.340465 3.078900 7.125000 0.000000 0.000000 14.963300 -45.074500 -0.028200 
-19.047914 17.784466 2.563187 -1.307849 43.961186 4.974064 -3.547905 -0.244329 1.448648 -5.482796 -5.466881 -16.762723 -0.038823 10.182184 29.662608 8.291223 -15.617643 4.705221 0.005300 -0.468000 -1.285900 2.088070 0.680840 -1.282777 10.823793 17.181721 -23.001134 -3.021059 -15.034838 43.275633 -4.584345 17.272535 6.646906 -0.595900 4.941800 -13.742800 -8.200891 -1.893461 22.889930 -1.510353 -4.402989 3.815715 0.936275 -1.548209 -5.465974 -0.218197 4.580797 -0.628966 7.644342 5.710242 -19.962771 0.475400 1.519400 -6.549900 -1.544976 -7.727279 1.719427 -57.678583 -8.258380 32.173460 35.677026 -41.822632 -17.754252 0.448399 -1.806667 -3.977689 9.427997 8.828356 1.705900 -7.125000 0.000000 0.000000 -15.716300 40.302400 1.873200 1.707615 6.176733 1.856744 78.451761 -20.439436 40.275129 -28.474147 36.246670 -9.669756 0.830527 0.110601 -4.765288 -10.626162 -15.330184 3.068500 7.125000 0.000000 0.000000 14.989000 -45.062300 -0.023600 
